<?xml version="1.0" encoding="UTF-8" standalone="no"?>
<svg
   width="922"
   height="437.33539"
   viewBox="0 0 922 437.33539"
   fill="none"
   version="1.1"
   id="svg63"
   sodipodi:docname="OW Vector.svg"
   inkscape:version="1.1.1 (3bf5ae0d25, 2021-09-20)"
   xmlns:inkscape="http://www.inkscape.org/namespaces/inkscape"
   xmlns:sodipodi="http://sodipodi.sourceforge.net/DTD/sodipodi-0.dtd"
   xmlns="http://www.w3.org/2000/svg"
   xmlns:svg="http://www.w3.org/2000/svg">
  <defs
     id="defs67" />
  <sodipodi:namedview
     id="namedview65"
     pagecolor="#ffffff"
     bordercolor="#666666"
     borderopacity="1.0"
     inkscape:pageshadow="2"
     inkscape:pageopacity="0.0"
     inkscape:pagecheckerboard="true"
     showgrid="false"
     inkscape:zoom="1.5093651"
     inkscape:cx="493.25374"
     inkscape:cy="213.66599"
     inkscape:window-width="1920"
     inkscape:window-height="1017"
     inkscape:window-x="-8"
     inkscape:window-y="-8"
     inkscape:window-maximized="1"
     inkscape:current-layer="svg63" />
  <path
     d="M 114.194,28.8193 1.05702,141.956 142.478,283.378 283.9,141.956 170.763,28.8193 c -15.621,-15.6209 -40.948,-15.6209 -56.569,0 z"
     fill="#185894"
     id="path43" />
  <path
     d="M 432.392,28.8193 319.255,141.956 460.676,283.378 602.098,141.956 488.961,28.8193 c -15.621,-15.6209 -40.948,-15.6209 -56.569,0 z"
     fill="#309975"
     id="path45" />
  <path
     d="M 750.59,28.8194 637.453,141.956 778.875,283.378 920.296,141.956 807.159,28.8194 c -15.621,-15.621 -40.948,-15.621 -56.569,0 z"
     fill="#489656"
     id="path47" />
  <path
     d="M 301.577,159.634 160.156,301.055 273.293,414.193 c 15.621,15.62 40.948,15.62 56.569,0 L 442.999,301.055 Z"
     fill="#2d7ac1"
     id="path49" />
  <path
     d="M 619.776,159.634 478.354,301.055 591.491,414.193 c 15.621,15.621 40.948,15.621 56.569,0 L 761.197,301.055 Z"
     fill="#58b368"
     id="path51" />
</svg>
